{"title":"Private Resort (1985) Johnny Depp (Crazy comedy,ENG-POL-PORT)","uid":4277516,"size":734469213,"categoryP":"video","categoryS":"movies","magnet":"?xt=urn:btih:dca6edbac08471d1e475ed83ba8dc98caa6b0079&amp;dn=Private+Resort+%281985%29+Johnny+Depp+%28Crazy+comedy%2CENG-POL-PORT%29&amp;tr=udp%3A%2F%2Ftracker.openbittorrent.com%3A80&amp;tr=udp%3A%2F%2Fopen.demonii.com%3A1337&amp;tr=udp%3A%2F%2Ftracker.coppersurfer.tk%3A6969&amp;tr=udp%3A%2F%2Fexodus.desync.com%3A6969","seeders":0,"leechers":2,"uploader":"Kuthumi","files":-1,"time":1215254983,"description":"Private Resort (1985) Johnny Depp's 2nd film  &lt;a href=&quot;\nhttp://www.imdb.com/title/tt0089839/&quot; rel=&quot;nofollow&quot; target=&quot;_NEW&quot;&gt;\nhttp://www.imdb.com/title/tt0089839/&lt;/a&gt;\n\nDual audio track: 1)original English 2) Polish 'lektor'\nOptional Polish subtitles in Text format\nBurned-in yellow Portugese subtitles\n\nWith Rob Morrow (Numb3rs) and Hector Elizondo\n\nHilarious crazy-comedy where Johnny Depp (then 22) and Rob Morrow (then 23) run around in a summer resort with lots of more or less naked women. Depp starred in 'Nightmare on Elm street' the year before, whereas Morrow had his debut in this one.\n\nDVDrip.\nColor widescreen 496x272 with surprisingly good picture quality, original mono sound.\n\nThis is indeed not my rip, I found it on the net using PirateBay's tracker, so I thought it should be represented here. It is the only available torrent for this rare film.\n\nIf you are allergic to subtitles, you should make an exception in this case and just imagine that you are on holiday abroad.\n\nThe original English soundtrack plays in WMP and in DivX Player. In the latter, you can right-click and choose audio track 2. If you cannot turn off the extra, optional Polish subs, you can copy the avi file to another directory. DO NOT delete the Text document with the subs, then you will be unable to seed.\n\nThe file behaves normally in my newest standalone DivX player. Both audio tracks can be selected, and the extra Polish subs can be turned on or off.\n\nFormat/Info                      : Audio Video Interleave\nFile size                        : 700 MiB\nDuration                         : 1h 21mn\nOveral bit rate                  : 1195 Kbps\nWriting application              : VirtualDubMod 1.5.4.1 (build 2178/release)\nWriting library                  : VirtualDubMod build 2178/release\nIAS1                             : English\nIAS2                             : Portugues\n\nVideo\nFormat                           : MPEG-4 Visual\nFormat profile                   : Streaming Video@L1\nFormat settings, BVOP            : Yes\nFormat settings, QPel            : No\nFormat settings, GMC             : No warppoints\nFormat settings, Matrix          : Custom\nCodec ID                         : XVID\nCodec ID/Hint                    : XviD\nDuration                         : 1h 21mn\nBit rate                         : 905 Kbps\nWidth                            : 496 pixels\nHeight                           : 272 pixels\nDisplay aspect ratio             : 16/9\nFrame rate                       : 23.976 fps\nResolution                       : 8 bits\nColorimetry                      : 4:2:0\nScan type                        : Progressive\nBits/(Pixel*Frame)               : 0.280\nStream size                      : 530 MiB\nWriting library                  : XviD 1.0.3 (UTC 2004-12-20)\n\nAudio #1\nFormat                           : MPEG Audio\nFormat version                   : Version 1\nFormat profile                   : Layer 3\nCodec ID                         : 55\nCodec ID/Hint                    : MP3\nDuration                         : 1h 21mn\nBit rate mode                    : Variable\nBit rate                         : 136 Kbps\nMinimum bit rate                 : 128 Kbps\nChannel(s)                       : 2 channels\nSampling rate                    : 48.0 KHz\nResolution                       : 16 bits\nStream size                      : 79.5 MiB\nWriting library                  : LAME3.96r\nEncoding settings                : ABR\n\nAudio #2\nFormat                           : MPEG Audio\nFormat version                   : Version 1\nFormat profile                   : Layer 3\nCodec ID                         : 55\nCodec ID/Hint                    : MP3\nDuration                         : 1h 21mn\nBit rate mode                    : Variable\nBit rate                         : 134 Kbps\nMinimum bit rate                 : 128 Kbps\nChannel(s)                       : 2 channels\nSampling rate                    : 48.0 KHz\nResolution                       : 16 bits\nStream size                      : 78.5 MiB\nWriting library                  : LAME3.96r\nEncoding settings                : ABR\n","torrent":{"xt":"urn:btih:dca6edbac08471d1e475ed83ba8dc98caa6b0079","amp;dn":"Private+Resort+%281985%29+Johnny+Depp+%28Crazy+comedy%2CENG-POL-PORT%29","amp;tr":["udp%3A%2F%2Ftracker.openbittorrent.com%3A80","udp%3A%2F%2Fopen.demonii.com%3A1337","udp%3A%2F%2Ftracker.coppersurfer.tk%3A6969","udp%3A%2F%2Fexodus.desync.com%3A6969"],"infoHash":"dca6edbac08471d1e475ed83ba8dc98caa6b0079","infoHashBuffer":{"type":"Buffer","data":[220,166,237,186,192,132,113,209,228,117,237,131,186,141,201,140,170,107,0,121]},"announce":[],"urlList":[]}}